<svg width="30" height="31" viewBox="0 0 30 31" fill="none" xmlns="http://www.w3.org/2000/svg">
<path d="M15.0001 30.5C23.2844 30.5 30.0001 23.7843 30.0001 15.5C30.0001 7.21573 23.2844 0.5 15.0001 0.5C6.71585 0.5 0.00012207 7.21573 0.00012207 15.5C0.00012207 23.7843 6.71585 30.5 15.0001 30.5Z" fill="#090909"/>
<path d="M24.0889 10.172C23.4434 10.4559 22.7502 10.6477 22.0212 10.734C22.7652 10.2925 23.3351 9.59298 23.6041 8.7604C22.9093 9.16925 22.1388 9.46621 21.3176 9.62613C20.6613 8.93285 19.7254 8.5 18.6899 8.5C16.7024 8.5 15.0906 10.0967 15.0906 12.0674C15.0906 12.3467 15.1223 12.6191 15.1833 12.8806C12.1914 12.7316 9.53891 11.3114 7.76345 9.15332C7.45343 9.68038 7.27597 10.2932 7.27597 10.947C7.27597 12.1845 7.91158 13.2764 8.87737 13.916C8.2873 13.8978 7.73231 13.7372 7.24656 13.47C7.24656 13.4848 7.24656 13.4997 7.24656 13.5151C7.24656 15.2437 8.48725 16.685 10.1342 17.0129C9.83164 17.095 9.51414 17.1379 9.18568 17.1379C8.95344 17.1379 8.72813 17.1161 8.50802 17.0751C8.96612 18.4919 10.2956 19.5233 11.8704 19.5524C10.6384 20.5095 9.08596 21.08 7.39985 21.08C7.10944 21.08 6.82242 21.0629 6.54065 21.0292C8.13401 22.0417 10.0259 22.6328 12.0589 22.6328C18.6801 22.6328 22.3013 17.1968 22.3013 12.4826C22.3013 12.3279 22.2978 12.1743 22.2903 12.0212C22.9956 11.5157 23.6065 10.8876 24.0889 10.172Z" fill="#FAFCF4"/>
</svg>
