<svg width="19" height="15" viewBox="0 0 19 15" fill="none" xmlns="http://www.w3.org/2000/svg">
<path d="M18.0889 1.67202C17.4434 1.95586 16.7502 2.14774 16.0212 2.23399C16.7652 1.79253 17.3351 1.09298 17.6041 0.260398C16.9092 0.669252 16.1388 0.966211 15.3176 1.12613C14.6613 0.432845 13.7254 0 12.6899 0C10.7024 0 9.09057 1.59669 9.09057 3.56742C9.09057 3.84666 9.1223 4.11907 9.18331 4.38062C6.19142 4.23161 3.53891 2.81137 1.76345 0.65332C1.45343 1.18038 1.27597 1.79317 1.27597 2.447C1.27597 3.68452 1.91158 4.7764 2.87737 5.41599C2.2873 5.39776 1.73231 5.23724 1.24656 4.96998C1.24656 4.98481 1.24656 4.99968 1.24656 5.01506C1.24656 6.74368 2.48725 8.18505 4.13418 8.51286C3.83164 8.59501 3.51414 8.63793 3.18568 8.63793C2.95344 8.63793 2.72813 8.61614 2.50802 8.57512C2.96612 9.99195 4.29561 11.0233 5.87043 11.0524C4.63839 12.0095 3.08596 12.58 1.39985 12.58C1.10944 12.58 0.822419 12.5629 0.540649 12.5292C2.13401 13.5417 4.02587 14.1328 6.0589 14.1328C12.6801 14.1328 16.3013 8.69677 16.3013 3.98263C16.3013 3.82787 16.2978 3.67425 16.2903 3.52119C16.9956 3.01573 17.6065 2.3876 18.0889 1.67202Z" fill="#090909"/>
</svg>
