<svg width="19" height="15" viewBox="0 0 19 15" fill="none" xmlns="http://www.w3.org/2000/svg">
<path d="M18.0888 1.67202C17.4434 1.95586 16.7501 2.14774 16.0212 2.23399C16.7651 1.79253 17.335 1.09298 17.6041 0.260398C16.9092 0.669252 16.1387 0.966211 15.3176 1.12613C14.6612 0.432845 13.7253 0 12.6899 0C10.7024 0 9.09052 1.59669 9.09052 3.56742C9.09052 3.84666 9.12226 4.11907 9.18327 4.38062C6.19137 4.23161 3.53886 2.81137 1.7634 0.65332C1.45338 1.18038 1.27593 1.79317 1.27593 2.447C1.27593 3.68452 1.91153 4.7764 2.87733 5.41599C2.28726 5.39776 1.73227 5.23724 1.24651 4.96998C1.24651 4.98481 1.24651 4.99968 1.24651 5.01506C1.24651 6.74368 2.4872 8.18505 4.13414 8.51286C3.8316 8.59501 3.5141 8.63793 3.18563 8.63793C2.95339 8.63793 2.72808 8.61614 2.50797 8.57512C2.96608 9.99195 4.29556 11.0233 5.87038 11.0524C4.63834 12.0095 3.08591 12.58 1.39981 12.58C1.10939 12.58 0.822373 12.5629 0.540604 12.5292C2.13397 13.5417 4.02583 14.1328 6.05885 14.1328C12.6801 14.1328 16.3012 8.69677 16.3012 3.98263C16.3012 3.82787 16.2978 3.67425 16.2903 3.52119C16.9956 3.01573 17.6065 2.3876 18.0888 1.67202Z" fill="#090909"/>
</svg>
