<svg width="21" height="18" viewBox="0 0 21 18" fill="none" xmlns="http://www.w3.org/2000/svg">
<path d="M4.47498 10.8423C4.475 10.7206 4.49876 10.6002 4.54489 10.4878C4.59102 10.3755 4.65862 10.2735 4.7438 10.1877C4.829 10.1018 4.93007 10.0339 5.04127 9.98772C5.15246 9.94156 5.27156 9.91809 5.39174 9.91866L6.91172 9.92368C7.15405 9.92368 7.38646 10.0212 7.55782 10.1946C7.72919 10.3681 7.82547 10.6034 7.82547 10.8488V16.6673C7.99658 16.6159 8.21634 16.561 8.45682 16.5037C8.62385 16.464 8.77272 16.3683 8.87928 16.2321C8.98582 16.096 9.04378 15.9274 9.04375 15.7537V8.53605C9.04375 8.29068 9.14001 8.05536 9.31136 7.88185C9.48272 7.70833 9.71514 7.61084 9.9575 7.61079H11.4805C11.7228 7.61084 11.9552 7.70833 12.1266 7.88185C12.298 8.05536 12.3942 8.29068 12.3942 8.53605V15.2347C12.3942 15.2347 12.7756 15.0785 13.147 14.9197C13.2849 14.8607 13.4027 14.7618 13.4855 14.6354C13.5683 14.509 13.6125 14.3608 13.6127 14.2091V6.22334C13.6127 5.97802 13.7089 5.74274 13.8803 5.56926C14.0516 5.39578 14.2839 5.29831 14.5262 5.29825H16.0492C16.2916 5.29825 16.524 5.39571 16.6954 5.56921C16.8667 5.74269 16.963 5.97799 16.963 6.22334V12.7994C18.2834 11.8306 19.6214 10.6655 20.6833 9.26444C20.8374 9.06108 20.9393 8.82227 20.98 8.56934C21.0207 8.31641 20.999 8.05719 20.9167 7.81483C20.4251 6.3831 19.6439 5.071 18.6228 3.96251C17.6016 2.85404 16.3631 1.97357 14.9866 1.37747C13.6101 0.781372 12.1258 0.482768 10.6287 0.500768C9.1316 0.518768 7.65473 0.852974 6.29258 1.482C4.93041 2.11102 3.71294 3.02101 2.7181 4.15374C1.72325 5.28645 0.972928 6.61697 0.515147 8.06013C0.0573674 9.50327 -0.0977894 11.0273 0.0596047 12.5346C0.216999 14.042 0.68348 15.4994 1.42919 16.8138C1.5591 17.0405 1.75022 17.225 1.98009 17.3456C2.20996 17.4662 2.46904 17.5178 2.72693 17.4945C3.015 17.4689 3.37367 17.4326 3.80011 17.3819C3.98574 17.3605 4.15713 17.2708 4.28162 17.1298C4.40612 16.9887 4.475 16.8062 4.47516 16.6171L4.47498 10.8423Z" fill="#FAFCF4"/>
</svg>
