<svg width="21" height="17" viewBox="0 0 21 17" fill="none" xmlns="http://www.w3.org/2000/svg">
<path d="M4.47498 10.3423C4.475 10.2206 4.49876 10.1002 4.54489 9.98783C4.59102 9.87549 4.65862 9.77349 4.7438 9.68766C4.829 9.60184 4.93007 9.53389 5.04127 9.48772C5.15246 9.44156 5.27156 9.41809 5.39174 9.41866L6.91172 9.42368C7.15405 9.42368 7.38646 9.52115 7.55782 9.69463C7.72919 9.86811 7.82547 10.1034 7.82547 10.3488V16.1673C7.99658 16.1159 8.21635 16.061 8.45682 16.0037C8.62385 15.964 8.77272 15.8683 8.87928 15.7321C8.98582 15.596 9.04378 15.4274 9.04375 15.2537V8.03605C9.04375 7.79068 9.14001 7.55536 9.31136 7.38185C9.48272 7.20833 9.71514 7.11084 9.9575 7.11079H11.4805C11.7228 7.11084 11.9552 7.20833 12.1266 7.38185C12.298 7.55536 12.3942 7.79068 12.3942 8.03605V14.7347C12.3942 14.7347 12.7756 14.5785 13.147 14.4197C13.2849 14.3607 13.4027 14.2618 13.4855 14.1354C13.5683 14.009 13.6125 13.8608 13.6127 13.7091V5.72334C13.6127 5.47802 13.7089 5.24274 13.8803 5.06926C14.0516 4.89578 14.2839 4.79831 14.5262 4.79826H16.0492C16.2916 4.79826 16.524 4.89571 16.6954 5.06921C16.8667 5.24269 16.963 5.47799 16.963 5.72334V12.2994C18.2834 11.3306 19.6214 10.1655 20.6833 8.76444C20.8374 8.56108 20.9393 8.32227 20.98 8.06934C21.0207 7.81641 20.999 7.55719 20.9167 7.31483C20.4251 5.8831 19.6439 4.571 18.6228 3.46251C17.6016 2.35404 16.3631 1.47357 14.9866 0.877468C13.6101 0.281372 12.1258 -0.0172318 10.6287 0.00076794C9.1316 0.0187675 7.65473 0.352974 6.29258 0.981998C4.93041 1.61102 3.71294 2.52101 2.7181 3.65374C1.72325 4.78645 0.972928 6.11697 0.515147 7.56013C0.0573674 9.00327 -0.0977894 10.5273 0.0596047 12.0346C0.216999 13.542 0.68348 14.9994 1.42919 16.3138C1.5591 16.5405 1.75022 16.725 1.98009 16.8456C2.20996 16.9662 2.46904 17.0178 2.72693 16.9945C3.015 16.9689 3.37367 16.9326 3.80011 16.8819C3.98574 16.8605 4.15713 16.7708 4.28162 16.6298C4.40612 16.4887 4.475 16.3062 4.47516 16.1171L4.47498 10.3423Z" fill="#090909"/>
</svg>
